<svg width="200" height="200" viewBox="0 0 200 200" fill="none" xmlns="http://www.w3.org/2000/svg">
<rect width="200" height="200" fill="white"/>
<path fill-rule="evenodd" clip-rule="evenodd" d="M121.972 74.9153C140.929 74.6941 152.739 67.6672 160.216 59.892C157.282 49.9982 151.921 41.1479 144.822 34.0312C138.409 41.6095 135.067 46.9975 133.201 50.0071L133.201 50.0073C132.378 51.3339 131.842 52.1983 131.455 52.5846C129.796 54.2444 127.093 54.233 125.419 52.559C123.745 50.8851 123.734 48.1825 125.393 46.5227C125.782 46.134 126.671 45.5777 128.032 44.7257C131.074 42.8217 136.475 39.4408 143.928 33.1529C132.895 22.5311 117.895 16 101.371 16C82.3794 16 65.403 24.6262 54.1458 38.1741C61.1475 51.4392 67.9633 60.2596 78.4434 65.9907C69.8767 73.2955 60.6378 82.9306 56.2018 93.4866C43.7622 79.486 41.214 61.8433 51.1478 42.0909C44.1241 52.0712 40 64.2393 40 77.3706C40 111.265 67.4766 138.741 101.371 138.741C129.613 138.741 153.399 119.664 160.547 93.6938C156.449 96.52 151.6 99.452 145.927 102.591C141.436 105.077 137.983 107.613 134.819 109.938C127.717 115.155 122.07 119.303 109.411 119.403C116.524 109.566 123.032 95.8301 124.463 88.2996C122.857 96.7532 111.482 114.15 102.429 122.628C102.164 121.54 101.502 120.57 100.53 120.246C98.0078 119.405 96.8808 120.333 94.6703 122.698L94.4528 122.93C92.5346 124.986 91.4855 126.111 87.1533 127.765C78.0368 129.341 68.7477 126.533 61.4812 115.275C58.1953 110.184 57.9493 104.15 59.7032 97.815C63.2511 86.8135 71.3634 74.3405 80.0137 66.8125L80.0769 66.8441C80.2677 66.6513 80.4588 66.4593 80.6503 66.2684L80.68 66.2434L80.6774 66.2413C92.1351 54.8174 104.64 46.7285 109.011 47.6368C117.054 49.3081 114.713 61.5649 112.536 67.4843C116.766 68.8593 119.899 71.5064 121.972 74.9153ZM101.191 101.625C101.191 103.644 99.5545 105.281 97.5353 105.281C95.516 105.281 93.8791 103.644 93.8791 101.625C93.8791 99.6059 95.516 97.969 97.5353 97.969C99.5545 97.969 101.191 99.6059 101.191 101.625ZM106.074 32.0011C105.337 32.7381 104.137 32.733 103.393 31.9898C102.65 31.2465 102.645 30.0465 103.382 29.3095C103.553 29.138 103.937 28.8999 104.526 28.5346C106.468 27.3301 110.641 24.7423 116.787 18.5959C110.751 24.6326 108.109 28.853 106.871 30.8296C106.493 31.4339 106.246 31.8285 106.074 32.0011ZM70.9898 47.3934C69.6611 46.0648 69.652 43.9196 70.9695 42.6021C71.278 42.2936 71.9834 41.8521 73.0638 41.1758C76.5972 38.964 84.1418 34.2414 94.9333 23.4499C83.9457 34.4375 79.3196 41.8962 77.1664 45.3679L77.1663 45.368C76.5133 46.421 76.0877 47.1071 75.7811 47.4137C74.4636 48.7312 72.3185 48.7221 70.9898 47.3934Z" fill="url(#paint0_linear)"/>
<path d="M160.786 166.67C160.786 172.276 156.241 176.82 150.636 176.82C145.03 176.82 140.486 172.276 140.486 166.67C140.486 161.064 145.03 156.52 150.636 156.52C156.241 156.52 160.786 161.064 160.786 166.67Z" fill="#987CE1"/>
<path fill-rule="evenodd" clip-rule="evenodd" d="M153.446 176.82V164.015H160.629V176.82H153.446Z" fill="#987CE1"/>
<path fill-rule="evenodd" clip-rule="evenodd" d="M136 159.927C136 159.927 136.002 159.929 133.914 162.926C131.825 165.924 131.827 165.925 131.827 165.925L131.832 165.929L131.837 165.932L131.839 165.934L131.817 165.918C131.79 165.9 131.74 165.866 131.669 165.82C131.528 165.728 131.308 165.592 131.031 165.437C130.459 165.12 129.718 164.77 128.944 164.549C126.116 163.738 124.424 166.332 124.254 168.841C124.185 169.848 124.202 171.008 124.246 172.416C124.254 172.692 124.264 172.978 124.274 173.273C124.313 174.423 124.356 175.699 124.356 177H117.149C117.149 175.839 117.111 174.726 117.073 173.591C117.062 173.279 117.052 172.966 117.042 172.65C116.998 171.235 116.967 169.745 117.064 168.331C117.244 165.675 118.156 162.765 120.537 160.308C124.246 156.481 128.129 156.674 130.892 157.466C132.351 157.884 133.608 158.493 134.476 158.976C134.918 159.221 135.279 159.445 135.538 159.613C135.667 159.697 135.773 159.768 135.851 159.822C135.89 159.849 135.922 159.871 135.947 159.889L135.98 159.913L135.992 159.922L136 159.927Z" fill="#7BF1DC"/>
<path fill-rule="evenodd" clip-rule="evenodd" d="M100.393 157.321C95.5016 157.321 91.5365 161.286 91.5365 166.177C91.5365 171.069 95.5016 175.034 100.393 175.034V176.835C94.5068 176.835 89.7352 172.063 89.7352 166.177C89.7352 160.291 94.5068 155.52 100.393 155.52C106.279 155.52 111.05 160.291 111.05 166.177H109.249C109.249 161.286 105.284 157.321 100.393 157.321ZM100.144 167.078L103.413 171.654L104.878 170.607L102.357 167.078H108.198V165.277H101.071L99.6246 163.252L98.1588 164.299L98.8571 165.277H95.8896V167.078H100.144Z" fill="#524FFF"/>
<path fill-rule="evenodd" clip-rule="evenodd" d="M83.6302 166.04H66.3751V158.956H83.6302V166.04Z" fill="#7BF1DC"/>
<path fill-rule="evenodd" clip-rule="evenodd" d="M71.6267 176.82V154.49H78.5287V176.82H71.6267Z" fill="#7BF1DC"/>
<path d="M60.3001 166.768C60.3001 172.429 55.7905 177.017 50.2277 177.017C44.6648 177.017 40.1553 172.429 40.1553 166.768C40.1553 161.108 44.6648 156.52 50.2277 156.52C55.7905 156.52 60.3001 161.108 60.3001 166.768Z" fill="#987CE1"/>
<path fill-rule="evenodd" clip-rule="evenodd" d="M40 189V167.872H47.1282V189H40Z" fill="#987CE1"/>
<defs>
<linearGradient id="paint0_linear" x1="100.273" y1="16" x2="100.273" y2="138.741" gradientUnits="userSpaceOnUse">
<stop stop-color="#FFBEB3"/>
<stop offset="0.609375" stop-color="#D08DC6"/>
<stop offset="1" stop-color="#8170EB"/>
</linearGradient>
</defs>
</svg>
